<svg width="134" height="62" viewBox="0 0 134 62" fill="none" xmlns="http://www.w3.org/2000/svg">
<path d="M6.5 62C5.2 62 4.125 61.575 3.275 60.725C2.425 59.875 2 58.8 2 57.5V32C2 30.3 2.575 28.875 3.725 27.725C4.875 26.575 6.3 26 8 26H26C27.7 26 29.125 26.575 30.275 27.725C31.425 28.875 32 30.3 32 32V57.5C32 58.8 31.575 59.875 30.725 60.725C29.875 61.575 28.8 62 27.5 62C26.2 62 25.125 61.575 24.275 60.725C23.425 59.875 23 58.8 23 57.5V53H11V57.5C11 58.8 10.575 59.875 9.725 60.725C8.875 61.575 7.8 62 6.5 62ZM11 44H23V35H11V44Z" fill="black"/>
<path d="M72.5 57.5V35H66.5C65.2 35 64.125 34.575 63.275 33.725C62.425 32.875 62 31.8 62 30.5C62 29.2 62.425 28.125 63.275 27.275C64.125 26.425 65.2 26 66.5 26H87.5C88.8 26 89.875 26.425 90.725 27.275C91.575 28.125 92 29.2 92 30.5C92 31.8 91.575 32.875 90.725 33.725C89.875 34.575 88.8 35 87.5 35H81.5V57.5C81.5 58.8 81.075 59.875 80.225 60.725C79.375 61.575 78.3 62 77 62C75.7 62 74.625 61.575 73.775 60.725C72.925 59.875 72.5 58.8 72.5 57.5Z" fill="black"/>
<path d="M42.5 62C41.2 62 40.125 61.575 39.275 60.725C38.425 59.875 38 58.8 38 57.5V30.5C38 29.2 38.425 28.125 39.275 27.275C40.125 26.425 41.2 26 42.5 26C43.8 26 44.875 26.425 45.725 27.275C46.575 28.125 47 29.2 47 30.5V53H57.5C58.8 53 59.875 53.425 60.725 54.275C61.575 55.125 62 56.2 62 57.5C62 58.8 61.575 59.875 60.725 60.725C59.875 61.575 58.8 62 57.5 62H42.5Z" fill="black"/>
<path d="M8 24C5.7697 24 3.87879 23.2 2.32727 21.6C0.775758 20 0 18.05 0 15.75C0 13.925 0.648485 12.3438 1.94545 11.0063C3.24242 9.66875 4.77576 9 6.54545 9C8.09697 9 9.47273 9.525 10.6727 10.575C11.8727 11.625 12.6303 12.9125 12.9455 14.4375C13.0182 14.8125 13.1939 15.125 13.4727 15.375C13.7515 15.625 14.0606 15.75 14.4 15.75C14.8849 15.75 15.2727 15.5813 15.5636 15.2438C15.8545 14.9063 15.9636 14.525 15.8909 14.1C15.5515 11.95 14.6424 10.1625 13.1636 8.7375C11.6848 7.3125 9.84242 6.4 7.63636 6C8.07273 4.15 9.06061 2.6875 10.6 1.6125C12.1394 0.5375 13.9394 0 16 0C18.8606 0 21.2727 1.0125 23.2364 3.0375C25.2 5.0625 26.1818 7.55 26.1818 10.5C27.7091 10.5 29.0606 11.2 30.2364 12.6C31.4121 14 32 15.55 32 17.25C32 19.125 31.3636 20.7188 30.0909 22.0312C28.8182 23.3438 27.2727 24 25.4545 24H8Z" fill="black"/>
<path d="M102 62C100.9 62 99.9583 61.6083 99.175 60.825C98.3917 60.0417 98 59.1 98 58V30C98 28.9 98.3917 27.9583 99.175 27.175C99.9583 26.3917 100.9 26 102 26H110.4C110.833 24.8 111.558 23.8333 112.575 23.1C113.592 22.3667 114.733 22 116 22C117.267 22 118.408 22.3667 119.425 23.1C120.442 23.8333 121.167 24.8 121.6 26H130C131.1 26 132.042 26.3917 132.825 27.175C133.608 27.9583 134 28.9 134 30V58C134 59.1 133.608 60.0417 132.825 60.825C132.042 61.6083 131.1 62 130 62H102ZM104 56H128V32H104V56ZM116 28.5C116.433 28.5 116.792 28.3583 117.075 28.075C117.358 27.7917 117.5 27.4333 117.5 27C117.5 26.5667 117.358 26.2083 117.075 25.925C116.792 25.6417 116.433 25.5 116 25.5C115.567 25.5 115.208 25.6417 114.925 25.925C114.642 26.2083 114.5 26.5667 114.5 27C114.5 27.4333 114.642 27.7917 114.925 28.075C115.208 28.3583 115.567 28.5 116 28.5Z" fill="black"/>
<path d="M107.5 45H124.5C124.925 45 125.281 44.8553 125.569 44.566C125.856 44.277 126 43.9187 126 43.491C126 43.0637 125.856 42.7083 125.569 42.425C125.281 42.1417 124.925 42 124.5 42H107.5C107.075 42 106.719 42.1447 106.432 42.434C106.144 42.723 106 43.0813 106 43.509C106 43.9363 106.144 44.2917 106.432 44.575C106.719 44.8583 107.075 45 107.5 45Z" fill="black"/>
<path d="M124.5 39H107.5C107.075 39 106.719 38.8583 106.432 38.575C106.144 38.2917 106 37.9363 106 37.509C106 37.0813 106.144 36.723 106.432 36.434C106.719 36.1447 107.075 36 107.5 36H124.5C124.925 36 125.281 36.1417 125.569 36.425C125.856 36.7083 126 37.0637 126 37.491C126 37.9187 125.856 38.277 125.569 38.566C125.281 38.8553 124.925 39 124.5 39Z" fill="black"/>
<path d="M118.15 51H107.5C107.075 51 106.719 50.8583 106.432 50.575C106.144 50.2917 106 49.9363 106 49.509C106 49.0813 106.144 48.723 106.432 48.434C106.719 48.1447 107.075 48 107.5 48H118.15C118.575 48 118.931 48.1417 119.219 48.425C119.506 48.7083 119.65 49.0637 119.65 49.491C119.65 49.9187 119.506 50.277 119.219 50.566C118.931 50.8553 118.575 51 118.15 51Z" fill="black"/>
</svg>